<svg xmlns="http://www.w3.org/2000/svg" id="canvas" viewBox="271.707 198.013 1058.240 302.970"><path d="M 274.74,287.30 C 274.50 291.02, 275.63 296.14, 276.45 305.66 C 277.27 315.18, 277.81 321.96, 278.86 334.91 C 279.90 347.86, 280.51 356.62, 281.68 370.43 C 282.85 384.23, 283.48 391.99, 284.70 403.93 C 285.93 415.88, 286.43 422.26, 287.79 430.16 C 289.15 438.07, 289.29 441.20, 291.48 443.45 C 293.67 445.69, 296.09 445.02, 298.74 441.40 C 301.39 437.79, 302.08 433.52, 304.72 425.38 C 307.36 417.23, 308.79 410.88, 311.94 400.68 C 315.10 390.49, 316.77 384.05, 320.50 374.41 C 324.24 364.76, 326.54 359.55, 330.61 352.46 C 334.69 345.36, 337.17 342.24, 340.88 338.94 C 344.60 335.63, 346.03 335.40, 349.19 335.93 C 352.36 336.46, 353.76 337.81, 356.69 341.58 C 359.61 345.34, 361.42 348.53, 363.82 354.75 C 366.22 360.98, 367.43 365.29, 368.68 372.72 C 369.93 380.15, 370.46 384.57, 370.08 391.90 C 369.70 399.23, 369.05 403.16, 366.77 409.35 C 364.50 415.54, 362.57 418.52, 358.71 422.86 C 354.85 427.19, 352.29 428.77, 347.45 431.03 C 342.62 433.29, 339.48 433.78, 334.55 434.15 C 329.62 434.52, 326.77 434.16, 322.81 432.87 C 318.84 431.57, 317.21 429.61, 314.74 427.67 C 312.27 425.73, 311.82 424.58, 310.44 423.16 C 309.05 421.73, 308.82 420.90, 307.81 420.55 C 306.81 420.19, 305.88 420.22, 305.41 421.39 C 304.94 422.56, 304.40 424.10, 305.47 426.41 C 306.53 428.73, 307.56 430.61, 310.74 432.95 C 313.91 435.29, 316.48 436.93, 321.34 438.10 C 326.19 439.28, 329.41 439.50, 335.01 438.84 C 340.60 438.19, 343.99 437.53, 349.31 434.85 C 354.64 432.16, 357.46 430.27, 361.64 425.42 C 365.82 420.57, 367.81 417.27, 370.22 410.61 C 372.64 403.94, 373.25 399.80, 373.71 392.10 C 374.17 384.40, 373.69 379.88, 372.51 372.11 C 371.33 364.33, 370.30 359.90, 367.82 353.24 C 365.33 346.58, 363.71 343.08, 360.10 338.80 C 356.49 334.53, 354.07 332.38, 349.76 331.87 C 345.44 331.36, 342.89 332.45, 338.53 336.27 C 334.17 340.08, 332.10 343.53, 327.95 350.95 C 323.81 358.37, 321.64 363.61, 317.81 373.36 C 313.99 383.11, 312.15 389.52, 308.84 399.70 C 305.52 409.87, 303.89 416.26, 301.23 424.22 C 298.56 432.19, 296.94 436.08, 295.51 439.54 C 294.07 442.99, 295.05 443.48, 294.07 441.51 C 293.08 439.53, 292.01 437.23, 290.60 429.66 C 289.19 422.10, 288.37 415.57, 287.04 403.68 C 285.70 391.80, 285.09 384.03, 283.93 370.24 C 282.77 356.45, 282.23 347.68, 281.24 334.72 C 280.25 321.77, 279.70 314.99, 278.98 305.46 C 278.27 295.92, 278.51 290.69, 277.66 287.06 C 276.81 283.43, 274.98 283.58, 274.74 287.30" style="stroke: black; fill: black;"/><path d="M 425.09,351.21 C 426.63 351.47, 428.06 350.86, 429.77 349.75 C 431.47 348.63, 432.24 347.50, 433.59 345.64 C 434.95 343.78, 435.97 342.63, 436.55 340.45 C 437.14 338.27, 437.25 336.68, 436.52 334.72 C 435.79 332.77, 434.81 331.42, 432.90 330.66 C 430.99 329.90, 429.10 329.33, 426.97 330.92 C 424.85 332.51, 424.16 334.28, 422.28 338.60 C 420.41 342.92, 419.35 345.82, 417.58 352.52 C 415.82 359.22, 414.67 363.77, 413.47 372.10 C 412.26 380.43, 411.89 385.71, 411.58 394.18 C 411.27 402.65, 411.20 407.51, 411.93 414.46 C 412.65 421.41, 412.99 424.86, 415.21 428.94 C 417.42 433.02, 419.74 434.82, 422.99 434.88 C 426.24 434.94, 428.40 433.29, 431.47 429.23 C 434.54 425.18, 435.91 421.63, 438.36 414.60 C 440.80 407.57, 441.88 402.69, 443.71 394.07 C 445.54 385.46, 446.28 379.80, 447.51 371.52 C 448.74 363.24, 449.55 358.54, 449.85 352.67 C 450.15 346.80, 450.14 344.07, 449.00 342.16 C 447.86 340.26, 445.17 340.59, 444.16 343.15 C 443.16 345.72, 443.46 348.98, 443.96 354.98 C 444.46 360.99, 445.04 365.76, 446.64 373.18 C 448.24 380.60, 449.41 385.29, 451.95 392.09 C 454.49 398.88, 455.93 402.48, 459.33 407.15 C 462.72 411.81, 464.80 414.15, 468.93 415.42 C 473.07 416.70, 475.75 416.26, 480.01 413.51 C 484.27 410.77, 486.10 407.67, 490.24 401.69 C 494.39 395.70, 496.59 391.43, 500.73 383.58 C 504.87 375.73, 507.17 370.38, 510.94 362.43 C 514.72 354.47, 516.91 349.28, 519.61 343.81 C 522.32 338.34, 523.49 336.32, 524.46 335.08 C 525.44 333.84, 524.23 334.29, 524.51 337.62 C 524.79 340.96, 525.36 344.70, 525.87 351.76 C 526.38 358.82, 526.45 364.32, 527.06 372.91 C 527.67 381.51, 527.97 386.88, 528.93 394.75 C 529.90 402.62, 530.21 406.64, 531.87 412.25 C 533.53 417.86, 534.29 420.61, 537.25 422.82 C 540.21 425.03, 542.98 425.19, 546.68 423.30 C 550.38 421.42, 552.00 418.73, 555.74 413.39 C 559.49 408.06, 561.55 404.06, 565.42 396.64 C 569.29 389.23, 571.41 384.21, 575.11 376.33 C 578.81 368.46, 580.79 363.46, 583.91 357.29 C 587.02 351.11, 589.12 348.35, 590.70 345.47 C 592.28 342.60, 591.54 342.06, 591.81 342.90 C 592.08 343.74, 591.62 345.34, 592.05 349.68 C 592.47 354.02, 593.16 358.01, 593.92 364.58 C 594.69 371.16, 594.84 375.76, 595.86 382.58 C 596.87 389.39, 597.22 393.18, 598.99 398.64 C 600.76 404.09, 601.53 407.17, 604.72 409.85 C 607.91 412.53, 610.57 413.03, 614.92 412.04 C 619.27 411.05, 621.64 409.14, 626.45 404.90 C 631.27 400.66, 633.89 397.29, 638.98 390.83 C 644.07 384.38, 646.94 379.80, 651.91 372.60 C 656.87 365.40, 659.55 360.95, 663.82 354.83 C 668.09 348.70, 670.39 345.75, 673.26 341.99 C 676.12 338.22, 677.44 337.09, 678.15 335.99 C 678.86 334.90, 677.38 334.72, 676.79 336.53 C 676.20 338.34, 675.80 340.58, 675.21 345.03 C 674.61 349.48, 674.19 353.09, 673.82 358.78 C 673.45 364.47, 673.07 368.11, 673.35 373.46 C 673.62 378.80, 673.31 381.98, 675.18 385.51 C 677.06 389.03, 679.40 390.96, 682.73 391.09 C 686.06 391.21, 688.39 389.70, 691.83 386.14 C 695.27 382.59, 696.93 379.49, 699.93 373.31 C 702.93 367.13, 704.61 362.77, 706.84 355.23 C 709.07 347.70, 710.17 342.89, 711.09 335.64 C 712.02 328.39, 712.39 324.56, 711.48 318.99 C 710.57 313.43, 709.58 310.57, 706.56 307.83 C 703.54 305.09, 700.57 304.44, 696.38 305.29 C 692.19 306.14, 689.61 308.04, 685.60 312.07 C 681.59 316.11, 679.45 319.25, 676.33 325.46 C 673.22 331.67, 671.71 335.64, 670.01 343.14 C 668.32 350.63, 667.74 354.90, 667.88 362.91 C 668.02 370.93, 668.66 375.34, 670.72 383.19 C 672.77 391.04, 674.60 395.12, 678.17 402.18 C 681.73 409.25, 684.07 412.53, 688.54 418.49 C 693.02 424.45, 695.83 427.14, 700.56 431.98 C 705.28 436.83, 708.13 438.80, 712.17 442.72 C 716.21 446.63, 718.23 448.38, 720.76 451.56 C 723.30 454.74, 724.03 456.13, 724.86 458.62 C 725.68 461.10, 725.61 461.77, 724.89 463.97 C 724.16 466.16, 723.74 467.16, 721.22 469.60 C 718.71 472.04, 716.67 473.49, 712.32 476.16 C 707.98 478.82, 704.97 480.48, 699.51 482.92 C 694.04 485.36, 690.66 486.60, 685.00 488.37 C 679.35 490.14, 676.05 491.01, 671.25 491.77 C 666.44 492.54, 663.99 492.61, 660.99 492.20 C 657.98 491.78, 657.36 491.87, 656.22 489.70 C 655.08 487.54, 654.54 486.30, 655.30 481.39 C 656.07 476.47, 656.96 472.78, 660.03 465.14 C 663.10 457.51, 665.53 453.08, 670.66 443.20 C 675.80 433.33, 679.03 427.55, 685.69 415.78 C 692.35 404.01, 696.52 397.43, 703.95 384.36 C 711.38 371.30, 715.55 364.28, 722.85 350.46 C 730.16 336.63, 733.95 329.12, 740.47 315.22 C 746.99 301.32, 750.24 293.79, 755.44 280.95 C 760.65 268.12, 762.92 261.81, 766.50 251.06 C 770.09 240.31, 771.36 235.29, 773.36 227.21 C 775.36 219.13, 776.29 215.69, 776.51 210.64 C 776.72 205.60, 776.28 203.43, 774.42 201.98 C 772.56 200.53, 769.97 200.49, 767.21 203.39 C 764.45 206.30, 763.32 209.24, 760.61 216.53 C 757.90 223.82, 756.27 228.86, 753.67 239.83 C 751.07 250.80, 749.70 258.04, 747.63 271.36 C 745.56 284.67, 744.60 292.73, 743.33 306.42 C 742.05 320.11, 741.49 327.78, 741.27 339.80 C 741.05 351.82, 741.13 357.86, 742.22 366.52 C 743.31 375.19, 744.00 378.62, 746.74 383.12 C 749.47 387.63, 751.74 389.02, 755.91 389.05 C 760.07 389.08, 762.82 387.09, 767.58 383.26 C 772.34 379.43, 774.94 375.66, 779.71 369.89 C 784.48 364.11, 787.21 359.75, 791.44 354.39 C 795.68 349.03, 798.06 345.92, 800.89 343.09 C 803.71 340.26, 804.20 339.75, 805.58 340.23 C 806.97 340.72, 806.88 341.90, 807.82 345.51 C 808.75 349.11, 809.12 352.62, 810.25 358.28 C 811.38 363.95, 811.74 368.09, 813.46 373.83 C 815.18 379.58, 816.03 382.92, 818.85 387.02 C 821.68 391.12, 823.46 393.14, 827.58 394.33 C 831.71 395.51, 834.51 395.01, 839.48 392.94 C 844.45 390.88, 847.07 388.88, 852.45 384.03 C 857.82 379.17, 860.75 375.46, 866.35 368.67 C 871.96 361.88, 875.20 357.19, 880.46 350.08 C 885.72 342.97, 888.74 338.70, 892.67 333.12 C 896.61 327.55, 898.99 325.25, 900.13 322.20 C 901.27 319.15, 899.85 317.74, 898.39 317.88 C 896.93 318.03, 895.29 319.25, 892.85 322.94 C 890.41 326.63, 888.87 330.34, 886.18 336.34 C 883.49 342.34, 881.84 346.25, 879.40 352.95 C 876.96 359.64, 875.68 363.57, 873.97 369.82 C 872.26 376.08, 871.07 379.51, 870.83 384.22 C 870.59 388.93, 870.87 391.31, 872.76 393.37 C 874.65 395.43, 877.39 396.15, 880.30 394.53 C 883.22 392.92, 884.44 390.20, 887.35 385.28 C 890.27 380.35, 892.03 376.77, 894.88 369.91 C 897.73 363.05, 899.37 358.22, 901.58 350.99 C 903.80 343.77, 904.79 339.29, 905.95 333.79 C 907.11 328.29, 908.00 325.88, 907.37 323.51 C 906.75 321.15, 904.35 320.62, 902.83 321.98 C 901.31 323.33, 900.34 325.73, 899.77 330.30 C 899.21 334.87, 899.46 338.79, 899.99 344.83 C 900.53 350.87, 900.94 354.55, 902.44 360.52 C 903.95 366.48, 904.71 369.91, 907.50 374.65 C 910.30 379.39, 912.18 381.90, 916.42 384.22 C 920.66 386.53, 923.73 387.04, 928.70 386.21 C 933.68 385.37, 936.26 384.02, 941.29 380.04 C 946.32 376.05, 948.90 372.82, 953.84 366.29 C 958.78 359.76, 961.44 355.21, 966.00 347.38 C 970.57 339.54, 972.78 334.68, 976.66 327.11 C 980.54 319.53, 982.44 315.25, 985.41 309.49 C 988.38 303.73, 990.06 301.41, 991.53 298.32 C 993.00 295.23, 992.77 294.35, 992.75 294.05 C 992.73 293.75, 991.28 294.58, 991.42 296.82 C 991.56 299.06, 992.17 301.10, 993.45 305.26 C 994.73 309.42, 995.86 312.23, 997.80 317.61 C 999.74 322.99, 1001.09 326.21, 1003.15 332.15 C 1005.20 338.10, 1006.38 341.41, 1008.08 347.33 C 1009.78 353.25, 1010.76 356.35, 1011.67 361.76 C 1012.58 367.16, 1012.85 369.96, 1012.62 374.36 C 1012.38 378.76, 1011.81 380.75, 1010.49 383.77 C 1009.18 386.79, 1008.37 387.75, 1006.04 389.47 C 1003.71 391.18, 1002.05 391.75, 998.84 392.33 C 995.63 392.91, 993.27 392.76, 990.00 392.38 C 986.74 392.01, 984.81 391.39, 982.51 390.46 C 980.21 389.53, 979.33 388.95, 978.50 387.73 C 977.67 386.52, 977.48 386.43, 978.36 384.38 C 979.24 382.33, 979.95 380.59, 982.90 377.48 C 985.85 374.37, 988.12 372.24, 993.13 368.81 C 998.14 365.38, 1001.39 363.70, 1007.95 360.34 C 1014.52 356.97, 1018.55 355.29, 1025.97 351.99 C 1033.38 348.70, 1037.67 347.03, 1045.04 343.89 C 1052.41 340.74, 1056.35 339.25, 1062.82 336.26 C 1069.28 333.27, 1072.46 331.72, 1077.35 328.92 C 1082.24 326.12, 1084.77 325.00, 1087.27 322.26 C 1089.76 319.51, 1090.24 317.67, 1089.82 315.19 C 1089.40 312.72, 1087.93 310.84, 1085.17 309.87 C 1082.41 308.90, 1079.92 308.93, 1076.02 310.34 C 1072.13 311.75, 1069.70 313.46, 1065.67 316.93 C 1061.65 320.41, 1059.42 322.70, 1055.92 327.71 C 1052.42 332.73, 1050.54 335.93, 1048.17 342.01 C 1045.80 348.09, 1044.86 351.85, 1044.06 358.13 C 1043.25 364.40, 1043.07 367.99, 1044.14 373.36 C 1045.21 378.73, 1046.32 381.67, 1049.40 384.96 C 1052.49 388.26, 1055.14 389.59, 1059.55 389.86 C 1063.96 390.12, 1066.84 389.07, 1071.47 386.28 C 1076.09 383.49, 1078.46 381.06, 1082.68 375.89 C 1086.89 370.72, 1089.09 366.97, 1092.53 360.44 C 1095.98 353.91, 1097.52 349.45, 1099.91 343.23 C 1102.30 337.01, 1103.70 333.41, 1104.49 329.33 C 1105.27 325.26, 1104.73 323.47, 1103.83 322.86 C 1102.94 322.25, 1100.71 323.11, 1100.02 326.29 C 1099.32 329.48, 1099.68 333.04, 1100.36 338.80 C 1101.05 344.56, 1101.63 348.88, 1103.43 355.10 C 1105.23 361.32, 1106.48 364.87, 1109.37 369.90 C 1112.26 374.92, 1113.88 377.65, 1117.88 380.25 C 1121.88 382.84, 1124.63 383.54, 1129.36 382.88 C 1134.08 382.22, 1136.67 380.51, 1141.49 376.96 C 1146.30 373.40, 1148.76 370.65, 1153.43 365.11 C 1158.11 359.56, 1160.63 355.60, 1164.88 349.24 C 1169.12 342.89, 1171.41 338.46, 1174.67 333.34 C 1177.94 328.21, 1179.88 325.90, 1181.21 323.61 C 1182.54 321.32, 1181.40 320.64, 1181.31 321.90 C 1181.23 323.17, 1180.97 325.23, 1180.80 329.92 C 1180.63 334.62, 1180.42 338.88, 1180.46 345.37 C 1180.50 351.87, 1180.48 356.13, 1180.99 362.39 C 1181.50 368.65, 1181.51 371.99, 1182.99 376.67 C 1184.48 381.34, 1185.32 383.87, 1188.41 385.77 C 1191.50 387.67, 1194.23 387.67, 1198.44 386.16 C 1202.65 384.64, 1204.68 382.38, 1209.45 378.18 C 1214.21 373.98, 1217.00 370.63, 1222.28 365.17 C 1227.55 359.72, 1230.96 355.81, 1235.82 350.91 C 1240.68 346.00, 1243.37 343.17, 1246.59 340.66 C 1249.81 338.15, 1250.40 337.78, 1251.92 338.37 C 1253.44 338.96, 1253.31 340.02, 1254.19 343.59 C 1255.07 347.17, 1255.26 350.44, 1256.33 356.25 C 1257.39 362.06, 1257.45 366.43, 1259.52 372.64 C 1261.59 378.86, 1262.79 382.51, 1266.68 387.31 C 1270.56 392.12, 1273.05 394.59, 1278.94 396.65 C 1284.84 398.72, 1289.30 398.40, 1296.14 397.64 C 1302.99 396.89, 1307.23 395.10, 1313.16 392.87 C 1319.10 390.65, 1323.65 388.54, 1325.82 386.54 C 1327.99 384.54, 1326.83 382.41, 1324.01 382.89 C 1321.18 383.37, 1317.36 386.82, 1311.69 388.94 C 1306.02 391.06, 1301.94 392.70, 1295.66 393.48 C 1289.38 394.25, 1285.40 394.57, 1280.28 392.81 C 1275.15 391.05, 1273.28 389.00, 1270.05 384.68 C 1266.82 380.36, 1265.82 377.08, 1264.13 371.21 C 1262.44 365.34, 1262.56 361.18, 1261.59 355.33 C 1260.62 349.48, 1260.93 346.17, 1259.29 341.94 C 1257.65 337.72, 1256.47 335.21, 1253.39 334.19 C 1250.30 333.16, 1247.99 334.08, 1243.85 336.81 C 1239.71 339.54, 1237.63 342.76, 1232.68 347.82 C 1227.74 352.87, 1224.40 356.75, 1219.12 362.09 C 1213.84 367.42, 1210.81 370.68, 1206.28 374.51 C 1201.75 378.34, 1199.46 379.89, 1196.48 381.23 C 1193.49 382.57, 1193.06 382.43, 1191.35 381.22 C 1189.65 380.02, 1189.01 379.03, 1187.95 375.19 C 1186.89 371.35, 1186.44 367.98, 1186.05 362.02 C 1185.65 356.06, 1185.89 351.83, 1185.97 345.39 C 1186.06 338.96, 1186.77 334.88, 1186.47 329.85 C 1186.17 324.81, 1186.28 322.15, 1184.46 320.20 C 1182.65 318.26, 1180.15 317.97, 1177.41 320.12 C 1174.66 322.26, 1173.93 325.55, 1170.74 330.92 C 1167.55 336.29, 1165.55 340.69, 1161.45 346.98 C 1157.34 353.27, 1154.76 357.11, 1150.22 362.36 C 1145.68 367.62, 1143.08 370.10, 1138.76 373.24 C 1134.45 376.38, 1132.26 377.46, 1128.63 378.05 C 1125.00 378.64, 1123.61 378.29, 1120.61 376.18 C 1117.62 374.08, 1116.05 372.02, 1113.67 367.52 C 1111.28 363.02, 1110.13 359.56, 1108.68 353.69 C 1107.22 347.81, 1106.88 343.64, 1106.38 338.16 C 1105.87 332.68, 1106.87 329.44, 1106.16 326.28 C 1105.46 323.12, 1104.22 322.04, 1102.86 322.37 C 1101.49 322.69, 1100.78 324.03, 1099.34 327.89 C 1097.90 331.75, 1097.76 335.56, 1095.65 341.67 C 1093.53 347.79, 1092.07 352.20, 1088.77 358.46 C 1085.48 364.72, 1083.15 368.28, 1079.17 372.98 C 1075.19 377.67, 1072.73 379.63, 1068.86 381.94 C 1064.99 384.25, 1062.93 384.62, 1059.81 384.52 C 1056.68 384.41, 1055.42 383.86, 1053.24 381.44 C 1051.06 379.01, 1049.82 376.95, 1048.88 372.40 C 1047.95 367.85, 1047.86 364.43, 1048.56 358.69 C 1049.26 352.95, 1050.11 349.29, 1052.39 343.69 C 1054.68 338.10, 1056.55 335.08, 1059.98 330.71 C 1063.40 326.33, 1065.77 324.45, 1069.52 321.83 C 1073.27 319.20, 1075.75 318.72, 1078.73 317.57 C 1081.70 316.41, 1082.91 316.47, 1084.37 316.04 C 1085.83 315.62, 1086.27 315.01, 1086.03 315.43 C 1085.80 315.86, 1085.40 316.24, 1083.20 318.18 C 1080.99 320.13, 1079.41 322.20, 1075.02 325.15 C 1070.62 328.10, 1067.48 329.81, 1061.21 332.92 C 1054.94 336.03, 1051.00 337.53, 1043.67 340.70 C 1036.34 343.86, 1032.04 345.53, 1024.55 348.74 C 1017.05 351.96, 1013.01 353.58, 1006.21 356.78 C 999.40 359.98, 996.02 361.46, 990.53 364.75 C 985.03 368.03, 982.48 369.78, 978.73 373.21 C 974.98 376.63, 973.02 378.34, 971.78 381.88 C 970.53 385.42, 971.04 387.79, 972.52 390.91 C 974.00 394.04, 975.80 395.74, 979.16 397.50 C 982.53 399.26, 985.11 399.41, 989.35 399.71 C 993.58 400.00, 996.21 400.04, 1000.34 398.97 C 1004.46 397.91, 1006.87 396.98, 1009.95 394.37 C 1013.04 391.76, 1014.22 389.90, 1015.77 385.93 C 1017.32 381.97, 1017.62 379.53, 1017.70 374.53 C 1017.79 369.54, 1017.27 366.64, 1016.20 360.95 C 1015.13 355.27, 1014.07 352.16, 1012.36 346.11 C 1010.65 340.06, 1009.47 336.74, 1007.64 330.70 C 1005.81 324.65, 1004.71 321.37, 1003.22 315.90 C 1001.73 310.42, 1001.35 307.61, 1000.20 303.32 C 999.05 299.04, 999.11 296.80, 997.49 294.47 C 995.86 292.15, 994.16 291.41, 992.08 291.69 C 990.01 291.97, 989.15 292.64, 987.11 295.86 C 985.07 299.08, 984.59 301.84, 981.89 307.79 C 979.20 313.73, 977.40 318.01, 973.64 325.58 C 969.88 333.16, 967.64 337.98, 963.09 345.66 C 958.54 353.35, 955.77 357.81, 950.89 364.02 C 946.01 370.22, 943.27 373.17, 938.67 376.67 C 934.08 380.17, 931.89 380.86, 927.93 381.50 C 923.96 382.15, 922.08 381.74, 918.84 379.88 C 915.60 378.02, 914.01 376.32, 911.72 372.22 C 909.43 368.12, 908.52 364.94, 907.39 359.38 C 906.26 353.83, 906.27 350.18, 906.07 344.45 C 905.86 338.71, 906.37 335.03, 906.37 330.72 C 906.37 326.42, 906.76 324.44, 906.08 322.92 C 905.40 321.41, 903.96 321.17, 902.96 323.14 C 901.97 325.11, 902.20 327.46, 901.10 332.78 C 900.00 338.10, 899.55 342.69, 897.45 349.74 C 895.34 356.79, 893.52 361.51, 890.56 368.04 C 887.61 374.58, 885.47 378.04, 882.69 382.42 C 879.91 386.81, 877.99 388.21, 876.67 389.97 C 875.34 391.73, 876.20 392.30, 876.08 391.23 C 875.96 390.16, 875.63 388.69, 876.08 384.63 C 876.52 380.58, 876.79 376.97, 878.30 370.96 C 879.82 364.94, 881.09 361.02, 883.64 354.56 C 886.20 348.09, 888.21 344.41, 891.07 338.65 C 893.94 332.89, 896.25 329.69, 897.98 325.75 C 899.71 321.80, 900.13 320.13, 899.73 318.93 C 899.32 317.72, 898.04 317.34, 895.97 319.73 C 893.89 322.12, 893.00 325.21, 889.33 330.86 C 885.67 336.52, 882.79 340.91, 877.64 348.01 C 872.49 355.11, 869.17 359.77, 863.59 366.35 C 858.01 372.94, 854.90 376.49, 849.72 380.94 C 844.54 385.39, 841.83 386.89, 837.68 388.60 C 833.54 390.31, 831.91 390.37, 829.01 389.48 C 826.11 388.60, 825.26 387.63, 823.19 384.20 C 821.13 380.77, 820.15 377.74, 818.66 372.34 C 817.17 366.94, 816.89 362.91, 815.75 357.19 C 814.61 351.46, 814.75 347.92, 812.96 343.71 C 811.17 339.51, 809.85 337.01, 806.79 336.17 C 803.74 335.33, 801.47 336.43, 797.68 339.51 C 793.90 342.60, 792.16 346.09, 787.88 351.60 C 783.59 357.11, 780.90 361.41, 776.28 367.07 C 771.66 372.74, 768.89 376.33, 764.78 379.93 C 760.68 383.53, 758.79 384.78, 755.76 385.08 C 752.72 385.38, 751.77 385.21, 749.60 381.42 C 747.42 377.64, 746.09 374.48, 744.88 366.16 C 743.66 357.84, 743.41 351.74, 743.52 339.84 C 743.64 327.93, 744.17 320.24, 745.46 306.62 C 746.74 293.00, 747.72 284.94, 749.93 271.73 C 752.14 258.51, 753.65 251.30, 756.52 240.55 C 759.38 229.80, 761.35 224.82, 764.25 217.98 C 767.15 211.13, 769.38 209.15, 771.03 206.33 C 772.67 203.51, 772.15 203.04, 772.49 203.86 C 772.83 204.68, 773.09 205.87, 772.73 210.42 C 772.37 214.97, 772.34 218.61, 770.68 226.60 C 769.03 234.60, 767.85 239.66, 764.45 250.39 C 761.05 261.12, 758.81 267.43, 753.70 280.25 C 748.58 293.07, 745.36 300.60, 738.88 314.48 C 732.40 328.35, 728.60 335.84, 721.29 349.63 C 713.97 363.42, 709.80 370.41, 702.30 383.42 C 694.80 396.43, 690.60 403.00, 683.80 414.70 C 677.00 426.40, 673.69 432.12, 668.28 441.93 C 662.87 451.73, 660.25 456.01, 656.75 463.74 C 653.26 471.48, 651.84 474.92, 650.80 480.62 C 649.75 486.31, 649.69 488.83, 651.53 492.22 C 653.36 495.61, 655.88 496.67, 659.99 497.58 C 664.10 498.49, 666.80 497.70, 672.09 496.76 C 677.38 495.83, 680.56 494.77, 686.43 492.91 C 692.31 491.05, 695.73 489.87, 701.47 487.48 C 707.21 485.09, 710.31 483.65, 715.13 480.98 C 719.95 478.31, 722.36 477.17, 725.57 474.15 C 728.78 471.13, 730.17 469.39, 731.17 465.87 C 732.18 462.36, 731.89 460.13, 730.59 456.59 C 729.29 453.06, 727.78 451.62, 724.69 448.21 C 721.60 444.79, 719.41 443.31, 715.12 439.52 C 710.83 435.74, 708.00 433.93, 703.24 429.30 C 698.48 424.67, 695.74 422.11, 691.32 416.38 C 686.91 410.65, 684.64 407.47, 681.16 400.66 C 677.69 393.86, 675.91 389.90, 673.95 382.35 C 671.99 374.79, 671.39 370.54, 671.34 362.87 C 671.30 355.21, 671.95 351.09, 673.73 344.02 C 675.52 336.95, 677.19 333.19, 680.28 327.52 C 683.37 321.85, 685.71 319.08, 689.17 315.66 C 692.64 312.23, 694.81 311.24, 697.62 310.39 C 700.42 309.54, 701.30 309.56, 703.20 311.42 C 705.11 313.28, 706.36 314.96, 707.13 319.70 C 707.91 324.44, 707.93 328.27, 707.07 335.13 C 706.21 341.99, 705.12 346.80, 702.84 354.01 C 700.56 361.21, 698.68 365.47, 695.67 371.15 C 692.67 376.84, 690.41 379.45, 687.82 382.43 C 685.23 385.42, 684.13 385.91, 682.71 386.06 C 681.29 386.21, 681.41 385.74, 680.72 383.17 C 680.03 380.60, 679.37 378.01, 679.25 373.23 C 679.14 368.46, 679.62 364.79, 680.14 359.28 C 680.66 353.78, 681.51 350.38, 681.85 345.71 C 682.19 341.05, 682.92 338.53, 681.84 335.96 C 680.75 333.38, 678.85 332.21, 676.41 332.85 C 673.98 333.50, 672.79 335.21, 669.65 339.19 C 666.51 343.16, 664.86 346.45, 660.72 352.73 C 656.59 359.00, 653.93 363.44, 648.97 370.57 C 644.01 377.70, 641.01 382.19, 635.93 388.38 C 630.84 394.57, 627.98 397.74, 623.53 401.53 C 619.09 405.32, 616.81 406.38, 613.70 407.31 C 610.59 408.25, 610.04 408.22, 608.00 406.20 C 605.96 404.18, 604.97 402.07, 603.49 397.22 C 602.00 392.36, 601.42 388.56, 600.56 381.92 C 599.69 375.28, 599.79 370.66, 599.16 364.03 C 598.54 357.40, 598.51 353.44, 597.41 348.78 C 596.32 344.11, 595.80 341.92, 593.70 340.71 C 591.61 339.50, 589.62 339.77, 586.94 342.74 C 584.27 345.70, 583.34 349.13, 580.32 355.54 C 577.29 361.95, 575.50 366.94, 571.82 374.79 C 568.14 382.64, 565.88 387.58, 561.93 394.77 C 557.97 401.96, 555.59 405.88, 552.05 410.75 C 548.50 415.61, 546.55 417.40, 544.19 419.09 C 541.83 420.78, 541.90 420.80, 540.24 419.19 C 538.57 417.59, 537.37 416.04, 535.86 411.05 C 534.35 406.07, 533.64 401.97, 532.69 394.29 C 531.74 386.61, 531.60 381.22, 531.12 372.66 C 530.64 364.09, 530.74 358.69, 530.29 351.46 C 529.85 344.24, 530.41 340.35, 528.88 336.52 C 527.35 332.69, 525.22 331.22, 522.65 332.31 C 520.07 333.40, 519.00 336.26, 516.02 341.98 C 513.03 347.70, 511.40 352.93, 507.70 360.90 C 504.00 368.88, 501.68 374.18, 497.52 381.86 C 493.36 389.55, 490.91 393.76, 486.91 399.34 C 482.91 404.93, 480.82 407.45, 477.51 409.80 C 474.20 412.15, 473.28 412.12, 470.35 411.08 C 467.43 410.04, 465.76 408.69, 462.87 404.60 C 459.99 400.51, 458.22 397.11, 455.93 390.64 C 453.64 384.16, 452.76 379.44, 451.43 372.22 C 450.11 365.00, 449.81 360.29, 449.31 354.53 C 448.82 348.77, 449.68 345.82, 448.96 343.42 C 448.23 341.03, 446.37 340.76, 445.68 342.56 C 444.98 344.36, 445.84 346.73, 445.48 352.42 C 445.12 358.11, 444.96 362.84, 443.88 371.01 C 442.79 379.18, 441.96 384.84, 440.04 393.27 C 438.13 401.69, 436.80 406.49, 434.29 413.12 C 431.78 419.75, 429.75 422.92, 427.48 426.41 C 425.21 429.89, 424.59 430.43, 422.95 430.54 C 421.30 430.65, 420.69 430.24, 419.26 426.94 C 417.83 423.64, 416.61 420.55, 415.79 414.02 C 414.97 407.49, 414.88 402.57, 415.18 394.31 C 415.47 386.05, 415.87 380.78, 417.28 372.71 C 418.69 364.64, 419.99 360.15, 422.22 353.95 C 424.45 347.76, 426.33 345.27, 428.44 341.72 C 430.56 338.18, 432.05 337.77, 432.78 336.23 C 433.52 334.68, 432.75 334.46, 432.14 334.00 C 431.52 333.53, 430.71 333.55, 429.70 333.90 C 428.69 334.26, 428.18 334.59, 427.10 335.75 C 426.02 336.91, 425.23 338.01, 424.31 339.71 C 423.40 341.42, 422.96 342.52, 422.51 344.26 C 422.05 346.01, 421.53 347.03, 422.04 348.42 C 422.56 349.81, 423.54 350.94, 425.09 351.21" style="stroke: black; fill: black;"/></svg>